<?xml version="1.0" encoding="utf-8" standalone="no"?>
<!DOCTYPE svg PUBLIC "-//W3C//DTD SVG 1.1//EN"
  "http://www.w3.org/Graphics/SVG/1.1/DTD/svg11.dtd">
<!-- Created with matplotlib (https://matplotlib.org/) -->
<svg height="230.4pt" version="1.1" viewBox="0 0 648 230.4" width="648pt" xmlns="http://www.w3.org/2000/svg" xmlns:xlink="http://www.w3.org/1999/xlink">
 <metadata>
  <rdf:RDF xmlns:cc="http://creativecommons.org/ns#" xmlns:dc="http://purl.org/dc/elements/1.1/" xmlns:rdf="http://www.w3.org/1999/02/22-rdf-syntax-ns#">
   <cc:Work>
    <dc:type rdf:resource="http://purl.org/dc/dcmitype/StillImage"/>
    <dc:date>2021-03-14T21:43:03.567738</dc:date>
    <dc:format>image/svg+xml</dc:format>
    <dc:creator>
     <cc:Agent>
      <dc:title>Matplotlib v3.3.4, https://matplotlib.org/</dc:title>
     </cc:Agent>
    </dc:creator>
   </cc:Work>
  </rdf:RDF>
 </metadata>
 <defs>
  <style type="text/css">*{stroke-linecap:butt;stroke-linejoin:round;}</style>
 </defs>
 <g id="figure_1">
  <g id="patch_1">
   <path d="M 0 230.4 
L 648 230.4 
L 648 0 
L 0 0 
z
" style="fill:#ffffff;"/>
  </g>
  <g id="axes_1">
   <g id="patch_2">
    <path d="M 56.015346 188.44 
L 324.950173 188.44 
L 324.950173 25.45125 
L 56.015346 25.45125 
z
" style="fill:#ffffff;"/>
   </g>
   <g id="matplotlib.axis_1">
    <g id="xtick_1">
     <g id="line2d_1">
      <path clip-path="url(#p28314e93ae)" d="M 56.015346 188.44 
L 56.015346 25.45125 
" style="fill:none;stroke:#b0b0b0;stroke-dasharray:2.96,1.28;stroke-dashoffset:0;stroke-opacity:0.3;stroke-width:0.8;"/>
     </g>
     <g id="line2d_2">
      <defs>
       <path d="M 0 0 
L 0 3.5 
" id="m0d9bdc0b76" style="stroke:#000000;stroke-width:0.8;"/>
      </defs>
      <g>
       <use style="stroke:#000000;stroke-width:0.8;" x="56.015346" xlink:href="#m0d9bdc0b76" y="188.44"/>
      </g>
     </g>
     <g id="text_1">
      <!-- 400 -->
      <g transform="translate(46.471596 203.038437)scale(0.1 -0.1)">
       <defs>
        <path d="M 37.796875 64.3125 
L 12.890625 25.390625 
L 37.796875 25.390625 
z
M 35.203125 72.90625 
L 47.609375 72.90625 
L 47.609375 25.390625 
L 58.015625 25.390625 
L 58.015625 17.1875 
L 47.609375 17.1875 
L 47.609375 0 
L 37.796875 0 
L 37.796875 17.1875 
L 4.890625 17.1875 
L 4.890625 26.703125 
z
" id="DejaVuSans-52"/>
        <path d="M 31.78125 66.40625 
Q 24.171875 66.40625 20.328125 58.90625 
Q 16.5 51.421875 16.5 36.375 
Q 16.5 21.390625 20.328125 13.890625 
Q 24.171875 6.390625 31.78125 6.390625 
Q 39.453125 6.390625 43.28125 13.890625 
Q 47.125 21.390625 47.125 36.375 
Q 47.125 51.421875 43.28125 58.90625 
Q 39.453125 66.40625 31.78125 66.40625 
z
M 31.78125 74.21875 
Q 44.046875 74.21875 50.515625 64.515625 
Q 56.984375 54.828125 56.984375 36.375 
Q 56.984375 17.96875 50.515625 8.265625 
Q 44.046875 -1.421875 31.78125 -1.421875 
Q 19.53125 -1.421875 13.0625 8.265625 
Q 6.59375 17.96875 6.59375 36.375 
Q 6.59375 54.828125 13.0625 64.515625 
Q 19.53125 74.21875 31.78125 74.21875 
z
" id="DejaVuSans-48"/>
       </defs>
       <use xlink:href="#DejaVuSans-52"/>
       <use x="63.623047" xlink:href="#DejaVuSans-48"/>
       <use x="127.246094" xlink:href="#DejaVuSans-48"/>
      </g>
     </g>
    </g>
    <g id="xtick_2">
     <g id="line2d_3">
      <path clip-path="url(#p28314e93ae)" d="M 100.837817 188.44 
L 100.837817 25.45125 
" style="fill:none;stroke:#b0b0b0;stroke-dasharray:2.96,1.28;stroke-dashoffset:0;stroke-opacity:0.3;stroke-width:0.8;"/>
     </g>
     <g id="line2d_4">
      <g>
       <use style="stroke:#000000;stroke-width:0.8;" x="100.837817" xlink:href="#m0d9bdc0b76" y="188.44"/>
      </g>
     </g>
     <g id="text_2">
      <!-- 450 -->
      <g transform="translate(91.294067 203.038437)scale(0.1 -0.1)">
       <defs>
        <path d="M 10.796875 72.90625 
L 49.515625 72.90625 
L 49.515625 64.59375 
L 19.828125 64.59375 
L 19.828125 46.734375 
Q 21.96875 47.46875 24.109375 47.828125 
Q 26.265625 48.1875 28.421875 48.1875 
Q 40.625 48.1875 47.75 41.5 
Q 54.890625 34.8125 54.890625 23.390625 
Q 54.890625 11.625 47.5625 5.09375 
Q 40.234375 -1.421875 26.90625 -1.421875 
Q 22.3125 -1.421875 17.546875 -0.640625 
Q 12.796875 0.140625 7.71875 1.703125 
L 7.71875 11.625 
Q 12.109375 9.234375 16.796875 8.0625 
Q 21.484375 6.890625 26.703125 6.890625 
Q 35.15625 6.890625 40.078125 11.328125 
Q 45.015625 15.765625 45.015625 23.390625 
Q 45.015625 31 40.078125 35.4375 
Q 35.15625 39.890625 26.703125 39.890625 
Q 22.75 39.890625 18.8125 39.015625 
Q 14.890625 38.140625 10.796875 36.28125 
z
" id="DejaVuSans-53"/>
       </defs>
       <use xlink:href="#DejaVuSans-52"/>
       <use x="63.623047" xlink:href="#DejaVuSans-53"/>
       <use x="127.246094" xlink:href="#DejaVuSans-48"/>
      </g>
     </g>
    </g>
    <g id="xtick_3">
     <g id="line2d_5">
      <path clip-path="url(#p28314e93ae)" d="M 145.660288 188.44 
L 145.660288 25.45125 
" style="fill:none;stroke:#b0b0b0;stroke-dasharray:2.96,1.28;stroke-dashoffset:0;stroke-opacity:0.3;stroke-width:0.8;"/>
     </g>
     <g id="line2d_6">
      <g>
       <use style="stroke:#000000;stroke-width:0.8;" x="145.660288" xlink:href="#m0d9bdc0b76" y="188.44"/>
      </g>
     </g>
     <g id="text_3">
      <!-- 500 -->
      <g transform="translate(136.116538 203.038437)scale(0.1 -0.1)">
       <use xlink:href="#DejaVuSans-53"/>
       <use x="63.623047" xlink:href="#DejaVuSans-48"/>
       <use x="127.246094" xlink:href="#DejaVuSans-48"/>
      </g>
     </g>
    </g>
    <g id="xtick_4">
     <g id="line2d_7">
      <path clip-path="url(#p28314e93ae)" d="M 190.48276 188.44 
L 190.48276 25.45125 
" style="fill:none;stroke:#b0b0b0;stroke-dasharray:2.96,1.28;stroke-dashoffset:0;stroke-opacity:0.3;stroke-width:0.8;"/>
     </g>
     <g id="line2d_8">
      <g>
       <use style="stroke:#000000;stroke-width:0.8;" x="190.48276" xlink:href="#m0d9bdc0b76" y="188.44"/>
      </g>
     </g>
     <g id="text_4">
      <!-- 550 -->
      <g transform="translate(180.93901 203.038437)scale(0.1 -0.1)">
       <use xlink:href="#DejaVuSans-53"/>
       <use x="63.623047" xlink:href="#DejaVuSans-53"/>
       <use x="127.246094" xlink:href="#DejaVuSans-48"/>
      </g>
     </g>
    </g>
    <g id="xtick_5">
     <g id="line2d_9">
      <path clip-path="url(#p28314e93ae)" d="M 235.305231 188.44 
L 235.305231 25.45125 
" style="fill:none;stroke:#b0b0b0;stroke-dasharray:2.96,1.28;stroke-dashoffset:0;stroke-opacity:0.3;stroke-width:0.8;"/>
     </g>
     <g id="line2d_10">
      <g>
       <use style="stroke:#000000;stroke-width:0.8;" x="235.305231" xlink:href="#m0d9bdc0b76" y="188.44"/>
      </g>
     </g>
     <g id="text_5">
      <!-- 600 -->
      <g transform="translate(225.761481 203.038437)scale(0.1 -0.1)">
       <defs>
        <path d="M 33.015625 40.375 
Q 26.375 40.375 22.484375 35.828125 
Q 18.609375 31.296875 18.609375 23.390625 
Q 18.609375 15.53125 22.484375 10.953125 
Q 26.375 6.390625 33.015625 6.390625 
Q 39.65625 6.390625 43.53125 10.953125 
Q 47.40625 15.53125 47.40625 23.390625 
Q 47.40625 31.296875 43.53125 35.828125 
Q 39.65625 40.375 33.015625 40.375 
z
M 52.59375 71.296875 
L 52.59375 62.3125 
Q 48.875 64.0625 45.09375 64.984375 
Q 41.3125 65.921875 37.59375 65.921875 
Q 27.828125 65.921875 22.671875 59.328125 
Q 17.53125 52.734375 16.796875 39.40625 
Q 19.671875 43.65625 24.015625 45.921875 
Q 28.375 48.1875 33.59375 48.1875 
Q 44.578125 48.1875 50.953125 41.515625 
Q 57.328125 34.859375 57.328125 23.390625 
Q 57.328125 12.15625 50.6875 5.359375 
Q 44.046875 -1.421875 33.015625 -1.421875 
Q 20.359375 -1.421875 13.671875 8.265625 
Q 6.984375 17.96875 6.984375 36.375 
Q 6.984375 53.65625 15.1875 63.9375 
Q 23.390625 74.21875 37.203125 74.21875 
Q 40.921875 74.21875 44.703125 73.484375 
Q 48.484375 72.75 52.59375 71.296875 
z
" id="DejaVuSans-54"/>
       </defs>
       <use xlink:href="#DejaVuSans-54"/>
       <use x="63.623047" xlink:href="#DejaVuSans-48"/>
       <use x="127.246094" xlink:href="#DejaVuSans-48"/>
      </g>
     </g>
    </g>
    <g id="xtick_6">
     <g id="line2d_11">
      <path clip-path="url(#p28314e93ae)" d="M 280.127702 188.44 
L 280.127702 25.45125 
" style="fill:none;stroke:#b0b0b0;stroke-dasharray:2.96,1.28;stroke-dashoffset:0;stroke-opacity:0.3;stroke-width:0.8;"/>
     </g>
     <g id="line2d_12">
      <g>
       <use style="stroke:#000000;stroke-width:0.8;" x="280.127702" xlink:href="#m0d9bdc0b76" y="188.44"/>
      </g>
     </g>
     <g id="text_6">
      <!-- 650 -->
      <g transform="translate(270.583952 203.038437)scale(0.1 -0.1)">
       <use xlink:href="#DejaVuSans-54"/>
       <use x="63.623047" xlink:href="#DejaVuSans-53"/>
       <use x="127.246094" xlink:href="#DejaVuSans-48"/>
      </g>
     </g>
    </g>
    <g id="xtick_7">
     <g id="line2d_13">
      <path clip-path="url(#p28314e93ae)" d="M 324.950173 188.44 
L 324.950173 25.45125 
" style="fill:none;stroke:#b0b0b0;stroke-dasharray:2.96,1.28;stroke-dashoffset:0;stroke-opacity:0.3;stroke-width:0.8;"/>
     </g>
     <g id="line2d_14">
      <g>
       <use style="stroke:#000000;stroke-width:0.8;" x="324.950173" xlink:href="#m0d9bdc0b76" y="188.44"/>
      </g>
     </g>
     <g id="text_7">
      <!-- 700 -->
      <g transform="translate(315.406423 203.038437)scale(0.1 -0.1)">
       <defs>
        <path d="M 8.203125 72.90625 
L 55.078125 72.90625 
L 55.078125 68.703125 
L 28.609375 0 
L 18.3125 0 
L 43.21875 64.59375 
L 8.203125 64.59375 
z
" id="DejaVuSans-55"/>
       </defs>
       <use xlink:href="#DejaVuSans-55"/>
       <use x="63.623047" xlink:href="#DejaVuSans-48"/>
       <use x="127.246094" xlink:href="#DejaVuSans-48"/>
      </g>
     </g>
    </g>
    <g id="text_8">
     <!-- λ (nm) -->
     <g transform="translate(173.993697 216.716562)scale(0.1 -0.1)">
      <defs>
       <path d="M 30.953125 67.4375 
L 56.203125 0 
L 46.6875 0 
L 31.34375 40.4375 
L 12.5 0 
L 2.984375 0 
L 26.953125 52.4375 
L 23.34375 62.109375 
Q 21.046875 68.265625 15.828125 68.265625 
L 11.140625 68.265625 
L 11.140625 75.984375 
L 16.84375 75.875 
Q 27.875 75.734375 30.953125 67.4375 
z
" id="DejaVuSans-955"/>
       <path id="DejaVuSans-32"/>
       <path d="M 31 75.875 
Q 24.46875 64.65625 21.28125 53.65625 
Q 18.109375 42.671875 18.109375 31.390625 
Q 18.109375 20.125 21.3125 9.0625 
Q 24.515625 -2 31 -13.1875 
L 23.1875 -13.1875 
Q 15.875 -1.703125 12.234375 9.375 
Q 8.59375 20.453125 8.59375 31.390625 
Q 8.59375 42.28125 12.203125 53.3125 
Q 15.828125 64.359375 23.1875 75.875 
z
" id="DejaVuSans-40"/>
       <path d="M 54.890625 33.015625 
L 54.890625 0 
L 45.90625 0 
L 45.90625 32.71875 
Q 45.90625 40.484375 42.875 44.328125 
Q 39.84375 48.1875 33.796875 48.1875 
Q 26.515625 48.1875 22.3125 43.546875 
Q 18.109375 38.921875 18.109375 30.90625 
L 18.109375 0 
L 9.078125 0 
L 9.078125 54.6875 
L 18.109375 54.6875 
L 18.109375 46.1875 
Q 21.34375 51.125 25.703125 53.5625 
Q 30.078125 56 35.796875 56 
Q 45.21875 56 50.046875 50.171875 
Q 54.890625 44.34375 54.890625 33.015625 
z
" id="DejaVuSans-110"/>
       <path d="M 52 44.1875 
Q 55.375 50.25 60.0625 53.125 
Q 64.75 56 71.09375 56 
Q 79.640625 56 84.28125 50.015625 
Q 88.921875 44.046875 88.921875 33.015625 
L 88.921875 0 
L 79.890625 0 
L 79.890625 32.71875 
Q 79.890625 40.578125 77.09375 44.375 
Q 74.3125 48.1875 68.609375 48.1875 
Q 61.625 48.1875 57.5625 43.546875 
Q 53.515625 38.921875 53.515625 30.90625 
L 53.515625 0 
L 44.484375 0 
L 44.484375 32.71875 
Q 44.484375 40.625 41.703125 44.40625 
Q 38.921875 48.1875 33.109375 48.1875 
Q 26.21875 48.1875 22.15625 43.53125 
Q 18.109375 38.875 18.109375 30.90625 
L 18.109375 0 
L 9.078125 0 
L 9.078125 54.6875 
L 18.109375 54.6875 
L 18.109375 46.1875 
Q 21.1875 51.21875 25.484375 53.609375 
Q 29.78125 56 35.6875 56 
Q 41.65625 56 45.828125 52.96875 
Q 50 49.953125 52 44.1875 
z
" id="DejaVuSans-109"/>
       <path d="M 8.015625 75.875 
L 15.828125 75.875 
Q 23.140625 64.359375 26.78125 53.3125 
Q 30.421875 42.28125 30.421875 31.390625 
Q 30.421875 20.453125 26.78125 9.375 
Q 23.140625 -1.703125 15.828125 -13.1875 
L 8.015625 -13.1875 
Q 14.5 -2 17.703125 9.0625 
Q 20.90625 20.125 20.90625 31.390625 
Q 20.90625 42.671875 17.703125 53.65625 
Q 14.5 64.65625 8.015625 75.875 
z
" id="DejaVuSans-41"/>
      </defs>
      <use xlink:href="#DejaVuSans-955"/>
      <use x="59.179688" xlink:href="#DejaVuSans-32"/>
      <use x="90.966797" xlink:href="#DejaVuSans-40"/>
      <use x="129.980469" xlink:href="#DejaVuSans-110"/>
      <use x="193.359375" xlink:href="#DejaVuSans-109"/>
      <use x="290.771484" xlink:href="#DejaVuSans-41"/>
     </g>
    </g>
   </g>
   <g id="matplotlib.axis_2">
    <g id="ytick_1">
     <g id="line2d_15">
      <path clip-path="url(#p28314e93ae)" d="M 56.015346 157.926932 
L 324.950173 157.926932 
" style="fill:none;stroke:#b0b0b0;stroke-dasharray:2.96,1.28;stroke-dashoffset:0;stroke-opacity:0.3;stroke-width:0.8;"/>
     </g>
     <g id="line2d_16">
      <defs>
       <path d="M 0 0 
L -3.5 0 
" id="m6fa3838214" style="stroke:#000000;stroke-width:0.8;"/>
      </defs>
      <g>
       <use style="stroke:#000000;stroke-width:0.8;" x="56.015346" xlink:href="#m6fa3838214" y="157.926932"/>
      </g>
     </g>
     <g id="text_9">
      <!-- $\mathdefault{10^{-6}}$ -->
      <g transform="translate(25.515346 161.726151)scale(0.1 -0.1)">
       <defs>
        <path d="M 12.40625 8.296875 
L 28.515625 8.296875 
L 28.515625 63.921875 
L 10.984375 60.40625 
L 10.984375 69.390625 
L 28.421875 72.90625 
L 38.28125 72.90625 
L 38.28125 8.296875 
L 54.390625 8.296875 
L 54.390625 0 
L 12.40625 0 
z
" id="DejaVuSans-49"/>
        <path d="M 10.59375 35.5 
L 73.1875 35.5 
L 73.1875 27.203125 
L 10.59375 27.203125 
z
" id="DejaVuSans-8722"/>
       </defs>
       <use transform="translate(0 0.765625)" xlink:href="#DejaVuSans-49"/>
       <use transform="translate(63.623047 0.765625)" xlink:href="#DejaVuSans-48"/>
       <use transform="translate(128.203125 39.046875)scale(0.7)" xlink:href="#DejaVuSans-8722"/>
       <use transform="translate(186.855469 39.046875)scale(0.7)" xlink:href="#DejaVuSans-54"/>
      </g>
     </g>
    </g>
    <g id="ytick_2">
     <g id="line2d_17">
      <path clip-path="url(#p28314e93ae)" d="M 56.015346 113.768372 
L 324.950173 113.768372 
" style="fill:none;stroke:#b0b0b0;stroke-dasharray:2.96,1.28;stroke-dashoffset:0;stroke-opacity:0.3;stroke-width:0.8;"/>
     </g>
     <g id="line2d_18">
      <g>
       <use style="stroke:#000000;stroke-width:0.8;" x="56.015346" xlink:href="#m6fa3838214" y="113.768372"/>
      </g>
     </g>
     <g id="text_10">
      <!-- $\mathdefault{10^{-4}}$ -->
      <g transform="translate(25.515346 117.56759)scale(0.1 -0.1)">
       <use transform="translate(0 0.684375)" xlink:href="#DejaVuSans-49"/>
       <use transform="translate(63.623047 0.684375)" xlink:href="#DejaVuSans-48"/>
       <use transform="translate(128.203125 38.965625)scale(0.7)" xlink:href="#DejaVuSans-8722"/>
       <use transform="translate(186.855469 38.965625)scale(0.7)" xlink:href="#DejaVuSans-52"/>
      </g>
     </g>
    </g>
    <g id="ytick_3">
     <g id="line2d_19">
      <path clip-path="url(#p28314e93ae)" d="M 56.015346 69.609811 
L 324.950173 69.609811 
" style="fill:none;stroke:#b0b0b0;stroke-dasharray:2.96,1.28;stroke-dashoffset:0;stroke-opacity:0.3;stroke-width:0.8;"/>
     </g>
     <g id="line2d_20">
      <g>
       <use style="stroke:#000000;stroke-width:0.8;" x="56.015346" xlink:href="#m6fa3838214" y="69.609811"/>
      </g>
     </g>
     <g id="text_11">
      <!-- $\mathdefault{10^{-2}}$ -->
      <g transform="translate(25.515346 73.40903)scale(0.1 -0.1)">
       <defs>
        <path d="M 19.1875 8.296875 
L 53.609375 8.296875 
L 53.609375 0 
L 7.328125 0 
L 7.328125 8.296875 
Q 12.9375 14.109375 22.625 23.890625 
Q 32.328125 33.6875 34.8125 36.53125 
Q 39.546875 41.84375 41.421875 45.53125 
Q 43.3125 49.21875 43.3125 52.78125 
Q 43.3125 58.59375 39.234375 62.25 
Q 35.15625 65.921875 28.609375 65.921875 
Q 23.96875 65.921875 18.8125 64.3125 
Q 13.671875 62.703125 7.8125 59.421875 
L 7.8125 69.390625 
Q 13.765625 71.78125 18.9375 73 
Q 24.125 74.21875 28.421875 74.21875 
Q 39.75 74.21875 46.484375 68.546875 
Q 53.21875 62.890625 53.21875 53.421875 
Q 53.21875 48.921875 51.53125 44.890625 
Q 49.859375 40.875 45.40625 35.40625 
Q 44.1875 33.984375 37.640625 27.21875 
Q 31.109375 20.453125 19.1875 8.296875 
z
" id="DejaVuSans-50"/>
       </defs>
       <use transform="translate(0 0.765625)" xlink:href="#DejaVuSans-49"/>
       <use transform="translate(63.623047 0.765625)" xlink:href="#DejaVuSans-48"/>
       <use transform="translate(128.203125 39.046875)scale(0.7)" xlink:href="#DejaVuSans-8722"/>
       <use transform="translate(186.855469 39.046875)scale(0.7)" xlink:href="#DejaVuSans-50"/>
      </g>
     </g>
    </g>
    <g id="ytick_4">
     <g id="line2d_21">
      <path clip-path="url(#p28314e93ae)" d="M 56.015346 25.45125 
L 324.950173 25.45125 
" style="fill:none;stroke:#b0b0b0;stroke-dasharray:2.96,1.28;stroke-dashoffset:0;stroke-opacity:0.3;stroke-width:0.8;"/>
     </g>
     <g id="line2d_22">
      <g>
       <use style="stroke:#000000;stroke-width:0.8;" x="56.015346" xlink:href="#m6fa3838214" y="25.45125"/>
      </g>
     </g>
     <g id="text_12">
      <!-- $\mathdefault{10^{0}}$ -->
      <g transform="translate(31.415346 29.250469)scale(0.1 -0.1)">
       <use transform="translate(0 0.765625)" xlink:href="#DejaVuSans-49"/>
       <use transform="translate(63.623047 0.765625)" xlink:href="#DejaVuSans-48"/>
       <use transform="translate(128.203125 39.046875)scale(0.7)" xlink:href="#DejaVuSans-48"/>
      </g>
     </g>
    </g>
    <g id="text_13">
     <!-- Transmission -->
     <g transform="translate(19.435659 139.240938)rotate(-90)scale(0.1 -0.1)">
      <defs>
       <path d="M -0.296875 72.90625 
L 61.375 72.90625 
L 61.375 64.59375 
L 35.5 64.59375 
L 35.5 0 
L 25.59375 0 
L 25.59375 64.59375 
L -0.296875 64.59375 
z
" id="DejaVuSans-84"/>
       <path d="M 41.109375 46.296875 
Q 39.59375 47.171875 37.8125 47.578125 
Q 36.03125 48 33.890625 48 
Q 26.265625 48 22.1875 43.046875 
Q 18.109375 38.09375 18.109375 28.8125 
L 18.109375 0 
L 9.078125 0 
L 9.078125 54.6875 
L 18.109375 54.6875 
L 18.109375 46.1875 
Q 20.953125 51.171875 25.484375 53.578125 
Q 30.03125 56 36.53125 56 
Q 37.453125 56 38.578125 55.875 
Q 39.703125 55.765625 41.0625 55.515625 
z
" id="DejaVuSans-114"/>
       <path d="M 34.28125 27.484375 
Q 23.390625 27.484375 19.1875 25 
Q 14.984375 22.515625 14.984375 16.5 
Q 14.984375 11.71875 18.140625 8.90625 
Q 21.296875 6.109375 26.703125 6.109375 
Q 34.1875 6.109375 38.703125 11.40625 
Q 43.21875 16.703125 43.21875 25.484375 
L 43.21875 27.484375 
z
M 52.203125 31.203125 
L 52.203125 0 
L 43.21875 0 
L 43.21875 8.296875 
Q 40.140625 3.328125 35.546875 0.953125 
Q 30.953125 -1.421875 24.3125 -1.421875 
Q 15.921875 -1.421875 10.953125 3.296875 
Q 6 8.015625 6 15.921875 
Q 6 25.140625 12.171875 29.828125 
Q 18.359375 34.515625 30.609375 34.515625 
L 43.21875 34.515625 
L 43.21875 35.40625 
Q 43.21875 41.609375 39.140625 45 
Q 35.0625 48.390625 27.6875 48.390625 
Q 23 48.390625 18.546875 47.265625 
Q 14.109375 46.140625 10.015625 43.890625 
L 10.015625 52.203125 
Q 14.9375 54.109375 19.578125 55.046875 
Q 24.21875 56 28.609375 56 
Q 40.484375 56 46.34375 49.84375 
Q 52.203125 43.703125 52.203125 31.203125 
z
" id="DejaVuSans-97"/>
       <path d="M 44.28125 53.078125 
L 44.28125 44.578125 
Q 40.484375 46.53125 36.375 47.5 
Q 32.28125 48.484375 27.875 48.484375 
Q 21.1875 48.484375 17.84375 46.4375 
Q 14.5 44.390625 14.5 40.28125 
Q 14.5 37.15625 16.890625 35.375 
Q 19.28125 33.59375 26.515625 31.984375 
L 29.59375 31.296875 
Q 39.15625 29.25 43.1875 25.515625 
Q 47.21875 21.78125 47.21875 15.09375 
Q 47.21875 7.46875 41.1875 3.015625 
Q 35.15625 -1.421875 24.609375 -1.421875 
Q 20.21875 -1.421875 15.453125 -0.5625 
Q 10.6875 0.296875 5.421875 2 
L 5.421875 11.28125 
Q 10.40625 8.6875 15.234375 7.390625 
Q 20.0625 6.109375 24.8125 6.109375 
Q 31.15625 6.109375 34.5625 8.28125 
Q 37.984375 10.453125 37.984375 14.40625 
Q 37.984375 18.0625 35.515625 20.015625 
Q 33.0625 21.96875 24.703125 23.78125 
L 21.578125 24.515625 
Q 13.234375 26.265625 9.515625 29.90625 
Q 5.8125 33.546875 5.8125 39.890625 
Q 5.8125 47.609375 11.28125 51.796875 
Q 16.75 56 26.8125 56 
Q 31.78125 56 36.171875 55.265625 
Q 40.578125 54.546875 44.28125 53.078125 
z
" id="DejaVuSans-115"/>
       <path d="M 9.421875 54.6875 
L 18.40625 54.6875 
L 18.40625 0 
L 9.421875 0 
z
M 9.421875 75.984375 
L 18.40625 75.984375 
L 18.40625 64.59375 
L 9.421875 64.59375 
z
" id="DejaVuSans-105"/>
       <path d="M 30.609375 48.390625 
Q 23.390625 48.390625 19.1875 42.75 
Q 14.984375 37.109375 14.984375 27.296875 
Q 14.984375 17.484375 19.15625 11.84375 
Q 23.34375 6.203125 30.609375 6.203125 
Q 37.796875 6.203125 41.984375 11.859375 
Q 46.1875 17.53125 46.1875 27.296875 
Q 46.1875 37.015625 41.984375 42.703125 
Q 37.796875 48.390625 30.609375 48.390625 
z
M 30.609375 56 
Q 42.328125 56 49.015625 48.375 
Q 55.71875 40.765625 55.71875 27.296875 
Q 55.71875 13.875 49.015625 6.21875 
Q 42.328125 -1.421875 30.609375 -1.421875 
Q 18.84375 -1.421875 12.171875 6.21875 
Q 5.515625 13.875 5.515625 27.296875 
Q 5.515625 40.765625 12.171875 48.375 
Q 18.84375 56 30.609375 56 
z
" id="DejaVuSans-111"/>
      </defs>
      <use xlink:href="#DejaVuSans-84"/>
      <use x="46.333984" xlink:href="#DejaVuSans-114"/>
      <use x="87.447266" xlink:href="#DejaVuSans-97"/>
      <use x="148.726562" xlink:href="#DejaVuSans-110"/>
      <use x="212.105469" xlink:href="#DejaVuSans-115"/>
      <use x="264.205078" xlink:href="#DejaVuSans-109"/>
      <use x="361.617188" xlink:href="#DejaVuSans-105"/>
      <use x="389.400391" xlink:href="#DejaVuSans-115"/>
      <use x="441.5" xlink:href="#DejaVuSans-115"/>
      <use x="493.599609" xlink:href="#DejaVuSans-105"/>
      <use x="521.382812" xlink:href="#DejaVuSans-111"/>
      <use x="582.564453" xlink:href="#DejaVuSans-110"/>
     </g>
    </g>
   </g>
   <g id="line2d_23">
    <path clip-path="url(#p28314e93ae)" d="M 56.015346 32.11039 
L 56.911796 30.693735 
L 58.704694 26.304609 
L 59.601144 25.471697 
L 60.497593 26.364926 
L 61.394043 27.909207 
L 62.290492 29.023487 
L 63.186942 29.303782 
L 64.083391 28.868339 
L 64.97984 28.249285 
L 65.87629 28.217253 
L 66.772739 29.1604 
L 67.669189 30.636389 
L 68.565638 31.870172 
L 69.462087 32.307838 
L 70.358537 31.682244 
L 71.254986 29.966292 
L 72.151436 27.538269 
L 73.047885 25.639226 
L 73.944335 25.985642 
L 76.633683 32.911111 
L 77.530132 33.585678 
L 78.426582 33.124458 
L 79.323031 31.787785 
L 80.219481 30.157623 
L 81.11593 29.092658 
L 82.012379 29.06325 
L 82.908829 29.550618 
L 83.805278 29.641425 
L 84.701728 28.786612 
L 85.598177 27.138196 
L 86.494627 26.0613 
L 87.391076 27.599047 
L 89.183975 34.926998 
L 90.080424 37.344734 
L 90.976874 38.178631 
L 91.873323 37.283157 
L 92.769772 34.554724 
L 93.666222 30.24076 
L 94.562671 26.544765 
L 95.459121 27.720779 
L 96.35557 31.820857 
L 97.25202 34.914686 
L 98.148469 36.06563 
L 99.044918 35.543237 
L 99.941368 34.349458 
L 100.837817 33.932009 
L 101.734267 34.115088 
L 102.630716 32.65812 
L 103.527166 31.924634 
L 104.423615 45.151915 
L 105.320064 60.111909 
L 106.216514 71.858295 
L 107.112963 81.224785 
L 108.009413 88.889679 
L 108.905862 95.250462 
L 109.802312 100.548016 
L 110.698761 104.93547 
L 111.59521 108.514202 
L 112.49166 111.355552 
L 113.388109 113.518897 
L 114.284559 115.075286 
L 115.181008 116.148669 
L 116.077457 116.98706 
L 116.973907 118.04176 
L 117.870356 119.909935 
L 118.766806 122.960197 
L 120.559705 131.437349 
L 122.352603 140.011293 
L 124.145502 147.226266 
L 125.938401 153.076413 
L 127.7313 157.887527 
L 129.524199 162.025162 
L 132.213547 167.593963 
L 134.902895 172.664817 
L 136.695794 175.602637 
L 138.488693 177.98632 
L 139.385142 178.923281 
L 140.281592 179.670808 
L 141.178041 180.217816 
L 142.074491 180.555933 
L 142.97094 180.679605 
L 143.86739 180.586608 
L 144.763839 180.279197 
L 145.660288 179.766181 
L 146.556738 179.066289 
L 148.349637 177.260676 
L 150.142536 175.405512 
L 151.038985 174.726601 
L 151.935434 174.352484 
L 152.831884 174.327106 
L 153.728333 174.619033 
L 155.521232 175.760201 
L 157.314131 176.926151 
L 158.21058 177.333122 
L 159.10703 177.578525 
L 160.003479 177.657183 
L 160.899929 177.582304 
L 162.692827 177.107326 
L 164.485726 176.561204 
L 165.382176 176.418167 
L 166.278625 176.424804 
L 167.175075 176.593046 
L 168.967973 177.29852 
L 170.760872 178.115238 
L 171.657322 178.418637 
L 172.553771 178.594442 
L 173.450221 178.617081 
L 174.34667 178.475296 
L 175.243119 178.172576 
L 177.036018 177.182695 
L 178.828917 176.047975 
L 179.725367 175.636969 
L 180.621816 175.451882 
L 181.518265 175.549611 
L 182.414715 175.932593 
L 183.311164 176.547689 
L 186.896962 179.531727 
L 187.793411 180.032636 
L 188.689861 180.344418 
L 189.58631 180.444308 
L 190.48276 180.316233 
L 191.379209 179.947937 
L 192.275658 179.329006 
L 193.172108 178.449598 
L 194.068557 177.299804 
L 194.965007 175.869662 
L 195.861456 174.150101 
L 196.757906 172.13544 
L 198.550804 167.252018 
L 201.240153 158.841357 
L 202.136602 156.49822 
L 203.033052 154.793341 
L 203.929501 153.74163 
L 205.7224 152.496457 
L 206.618849 151.575348 
L 207.515299 150.013352 
L 208.411748 147.454786 
L 209.308197 143.346012 
L 210.204647 136.47834 
L 211.101096 122.826627 
L 211.997546 104.281231 
L 212.893995 132.211367 
L 213.790445 144.375521 
L 214.686894 152.102598 
L 215.583343 157.728856 
L 216.479793 162.091471 
L 217.376242 165.58695 
L 218.272692 168.434993 
L 219.169141 170.770199 
L 220.065591 172.680896 
L 220.96204 174.227902 
L 221.858489 175.454498 
L 222.754939 176.392118 
L 223.651388 177.063758 
L 224.547838 177.486109 
L 225.444287 177.670902 
L 226.340737 177.62575 
L 227.237186 177.354639 
L 228.133635 176.858151 
L 229.030085 176.13345 
L 229.926534 175.174022 
L 230.822984 173.969151 
L 231.719433 172.50301 
L 232.615882 170.753235 
L 233.512332 168.688669 
L 234.408781 166.265768 
L 235.305231 163.422678 
L 236.20168 160.069078 
L 237.09813 156.067844 
L 237.994579 151.200186 
L 238.891028 145.097938 
L 239.787478 137.14177 
L 240.683927 126.912822 
L 241.580377 121.465331 
L 243.373276 135.759607 
L 244.269725 140.540788 
L 245.166174 143.728748 
L 246.062624 145.81353 
L 246.959073 147.074547 
L 247.855523 147.673774 
L 248.751972 147.706792 
L 249.648422 147.229277 
L 250.544871 146.272309 
L 251.44132 144.854217 
L 252.33777 142.995906 
L 254.130669 138.266199 
L 255.027118 135.899188 
L 255.923567 134.298922 
L 256.820017 134.151704 
L 257.716466 135.532374 
L 259.509365 140.351253 
L 261.302264 144.803665 
L 262.198713 146.533022 
L 263.095163 147.922639 
L 263.991612 148.992344 
L 264.888062 149.764572 
L 265.784511 150.259965 
L 266.680961 150.496131 
L 267.57741 150.487703 
L 268.473859 150.246962 
L 269.370309 149.784837 
L 270.266758 149.112307 
L 271.163208 148.242434 
L 272.956107 145.992795 
L 276.541904 140.924759 
L 277.438354 140.126462 
L 278.334803 139.751345 
L 279.231252 139.83408 
L 280.127702 140.321318 
L 281.024151 141.097942 
L 284.609949 144.801875 
L 286.402848 146.111006 
L 287.299297 146.545975 
L 288.195747 146.829484 
L 289.092196 146.962291 
L 289.988646 146.946915 
L 290.885095 146.786841 
L 291.781544 146.486131 
L 292.677994 146.049317 
L 294.470893 144.788677 
L 296.263792 143.059306 
L 298.05669 140.949995 
L 302.538937 135.281376 
L 303.435387 134.389858 
L 304.331836 133.675456 
L 305.228286 133.158495 
L 306.124735 132.838205 
L 307.021185 132.69316 
L 308.814083 132.774777 
L 312.399881 133.273924 
L 314.19278 133.233882 
L 315.985679 132.854798 
L 317.778578 132.100249 
L 319.571477 130.961595 
L 321.364375 129.445722 
L 323.157274 127.570826 
L 324.950173 125.367774 
L 324.950173 125.367774 
" style="fill:none;stroke:#1f77b4;stroke-linecap:square;"/>
   </g>
   <g id="line2d_24">
    <path clip-path="url(#p28314e93ae)" d="M 56.015346 26.632863 
L 57.808245 28.58172 
L 58.704694 29.098474 
L 59.601144 29.069631 
L 60.497593 28.509731 
L 62.290492 26.594088 
L 63.186942 25.900156 
L 64.083391 25.702952 
L 66.772739 26.297843 
L 67.669189 26.164691 
L 68.565638 25.916463 
L 69.462087 25.849418 
L 70.358537 26.249895 
L 71.254986 27.156155 
L 73.047885 29.336127 
L 73.944335 29.954786 
L 74.840784 30.008229 
L 75.737233 29.466271 
L 76.633683 28.427168 
L 78.426582 26.045108 
L 79.323031 25.529143 
L 80.219481 25.697323 
L 82.012379 26.782807 
L 82.908829 27.037533 
L 85.598177 26.939548 
L 86.494627 27.461978 
L 89.183975 30.076266 
L 90.080424 30.265951 
L 90.976874 29.811962 
L 91.873323 28.742993 
L 93.666222 25.978849 
L 94.562671 25.484876 
L 95.459121 26.105297 
L 97.25202 28.7154 
L 98.148469 29.56494 
L 99.044918 29.794792 
L 99.941368 29.461515 
L 101.734267 28.240635 
L 102.630716 28.12564 
L 103.527166 28.524067 
L 104.423615 29.109021 
L 105.320064 29.426381 
L 106.216514 29.144069 
L 107.112963 28.166254 
L 108.009413 26.78094 
L 108.905862 25.905504 
L 109.802312 26.752008 
L 110.698761 29.344921 
L 111.59521 32.441839 
L 112.49166 35.003436 
L 113.388109 36.556158 
L 114.284559 36.893392 
L 115.181008 35.864095 
L 116.077457 33.322873 
L 116.973907 29.413031 
L 117.870356 26.165761 
L 118.766806 28.3999 
L 120.559705 40.795241 
L 121.456154 45.830074 
L 125.938401 67.657144 
L 127.7313 77.003729 
L 129.524199 85.295326 
L 131.317098 92.333941 
L 133.109997 98.336986 
L 134.902895 103.587252 
L 136.695794 108.289758 
L 138.488693 112.52224 
L 140.281592 116.253775 
L 142.074491 119.401001 
L 143.86739 121.879245 
L 144.763839 122.847749 
L 145.660288 123.629598 
L 146.556738 124.22318 
L 147.453187 124.629718 
L 148.349637 124.853838 
L 149.246086 124.904441 
L 150.142536 124.795932 
L 151.935434 124.19602 
L 155.521232 122.622545 
L 156.417682 122.448229 
L 157.314131 122.431696 
L 158.21058 122.567466 
L 160.003479 123.15611 
L 162.692827 124.096284 
L 164.485726 124.325689 
L 166.278625 124.119592 
L 168.071524 123.561453 
L 171.657322 122.261072 
L 173.450221 121.931234 
L 177.932468 121.599903 
L 179.725367 121.053045 
L 180.621816 120.596966 
L 181.518265 120.005097 
L 183.311164 118.410321 
L 185.104063 116.332551 
L 189.58631 110.615716 
L 191.379209 108.967927 
L 193.172108 107.801578 
L 195.861456 106.197961 
L 196.757906 105.503387 
L 197.654355 104.662869 
L 198.550804 103.647604 
L 199.447254 102.434201 
L 200.343703 101.003 
L 201.240153 99.336538 
L 202.136602 97.418248 
L 203.929501 92.758136 
L 205.7224 86.872157 
L 207.515299 79.578043 
L 209.308197 70.681493 
L 211.101096 60.13655 
L 213.790445 43.168074 
L 215.583343 33.942314 
L 216.479793 30.136154 
L 217.376242 27.086624 
L 218.272692 25.543634 
L 219.169141 25.859991 
L 220.96204 28.389345 
L 221.858489 28.782041 
L 222.754939 28.142453 
L 223.651388 26.725574 
L 224.547838 25.873466 
L 225.444287 28.016307 
L 226.340737 33.223144 
L 228.133635 44.46146 
L 229.030085 48.912022 
L 229.926534 52.536651 
L 230.822984 55.432897 
L 231.719433 57.691969 
L 232.615882 59.391979 
L 233.512332 60.605595 
L 234.408781 61.414117 
L 235.305231 61.927828 
L 237.09813 62.801296 
L 237.994579 63.680871 
L 238.891028 65.177319 
L 239.787478 67.332657 
L 241.580377 72.879175 
L 243.373276 78.589045 
L 245.166174 83.527279 
L 246.959073 87.472518 
L 247.855523 89.077011 
L 248.751972 90.448179 
L 249.648422 91.596474 
L 250.544871 92.532414 
L 251.44132 93.266474 
L 252.33777 93.809371 
L 253.234219 94.17267 
L 254.130669 94.369694 
L 255.027118 94.416786 
L 256.820017 94.151667 
L 260.405815 93.269301 
L 261.302264 93.291536 
L 262.198713 93.515377 
L 263.095163 93.961046 
L 263.991612 94.618617 
L 265.784511 96.407486 
L 269.370309 100.418394 
L 271.163208 102.043562 
L 272.956107 103.23717 
L 274.749005 103.964604 
L 275.645455 104.152908 
L 277.438354 104.189206 
L 279.231252 103.797557 
L 281.024151 103.024782 
L 282.81705 101.943096 
L 289.092196 97.668347 
L 290.885095 97.001819 
L 292.677994 96.735504 
L 294.470893 96.764968 
L 298.95314 97.020277 
L 300.746039 96.835498 
L 302.538937 96.370037 
L 304.331836 95.592104 
L 306.124735 94.490335 
L 307.917634 93.068047 
L 309.710533 91.341214 
L 311.503432 89.339385 
L 314.19278 85.926861 
L 321.364375 76.303456 
L 324.950173 72.134551 
L 324.950173 72.134551 
" style="fill:none;stroke:#ff7f0e;stroke-linecap:square;"/>
   </g>
   <g id="patch_3">
    <path d="M 56.015346 188.44 
L 56.015346 25.45125 
" style="fill:none;stroke:#000000;stroke-linecap:square;stroke-linejoin:miter;stroke-width:0.8;"/>
   </g>
   <g id="patch_4">
    <path d="M 324.950173 188.44 
L 324.950173 25.45125 
" style="fill:none;stroke:#000000;stroke-linecap:square;stroke-linejoin:miter;stroke-width:0.8;"/>
   </g>
   <g id="patch_5">
    <path d="M 56.015346 188.44 
L 324.950173 188.44 
" style="fill:none;stroke:#000000;stroke-linecap:square;stroke-linejoin:miter;stroke-width:0.8;"/>
   </g>
   <g id="patch_6">
    <path d="M 56.015346 25.45125 
L 324.950173 25.45125 
" style="fill:none;stroke:#000000;stroke-linecap:square;stroke-linejoin:miter;stroke-width:0.8;"/>
   </g>
   <g id="text_14">
    <!-- Angle of Incidence: 29.0° -->
    <g transform="translate(114.690572 19.45125)scale(0.12 -0.12)">
     <defs>
      <path d="M 34.1875 63.1875 
L 20.796875 26.90625 
L 47.609375 26.90625 
z
M 28.609375 72.90625 
L 39.796875 72.90625 
L 67.578125 0 
L 57.328125 0 
L 50.6875 18.703125 
L 17.828125 18.703125 
L 11.1875 0 
L 0.78125 0 
z
" id="DejaVuSans-65"/>
      <path d="M 45.40625 27.984375 
Q 45.40625 37.75 41.375 43.109375 
Q 37.359375 48.484375 30.078125 48.484375 
Q 22.859375 48.484375 18.828125 43.109375 
Q 14.796875 37.75 14.796875 27.984375 
Q 14.796875 18.265625 18.828125 12.890625 
Q 22.859375 7.515625 30.078125 7.515625 
Q 37.359375 7.515625 41.375 12.890625 
Q 45.40625 18.265625 45.40625 27.984375 
z
M 54.390625 6.78125 
Q 54.390625 -7.171875 48.1875 -13.984375 
Q 42 -20.796875 29.203125 -20.796875 
Q 24.46875 -20.796875 20.265625 -20.09375 
Q 16.0625 -19.390625 12.109375 -17.921875 
L 12.109375 -9.1875 
Q 16.0625 -11.328125 19.921875 -12.34375 
Q 23.78125 -13.375 27.78125 -13.375 
Q 36.625 -13.375 41.015625 -8.765625 
Q 45.40625 -4.15625 45.40625 5.171875 
L 45.40625 9.625 
Q 42.625 4.78125 38.28125 2.390625 
Q 33.9375 0 27.875 0 
Q 17.828125 0 11.671875 7.65625 
Q 5.515625 15.328125 5.515625 27.984375 
Q 5.515625 40.671875 11.671875 48.328125 
Q 17.828125 56 27.875 56 
Q 33.9375 56 38.28125 53.609375 
Q 42.625 51.21875 45.40625 46.390625 
L 45.40625 54.6875 
L 54.390625 54.6875 
z
" id="DejaVuSans-103"/>
      <path d="M 9.421875 75.984375 
L 18.40625 75.984375 
L 18.40625 0 
L 9.421875 0 
z
" id="DejaVuSans-108"/>
      <path d="M 56.203125 29.59375 
L 56.203125 25.203125 
L 14.890625 25.203125 
Q 15.484375 15.921875 20.484375 11.0625 
Q 25.484375 6.203125 34.421875 6.203125 
Q 39.59375 6.203125 44.453125 7.46875 
Q 49.3125 8.734375 54.109375 11.28125 
L 54.109375 2.78125 
Q 49.265625 0.734375 44.1875 -0.34375 
Q 39.109375 -1.421875 33.890625 -1.421875 
Q 20.796875 -1.421875 13.15625 6.1875 
Q 5.515625 13.8125 5.515625 26.8125 
Q 5.515625 40.234375 12.765625 48.109375 
Q 20.015625 56 32.328125 56 
Q 43.359375 56 49.78125 48.890625 
Q 56.203125 41.796875 56.203125 29.59375 
z
M 47.21875 32.234375 
Q 47.125 39.59375 43.09375 43.984375 
Q 39.0625 48.390625 32.421875 48.390625 
Q 24.90625 48.390625 20.390625 44.140625 
Q 15.875 39.890625 15.1875 32.171875 
z
" id="DejaVuSans-101"/>
      <path d="M 37.109375 75.984375 
L 37.109375 68.5 
L 28.515625 68.5 
Q 23.6875 68.5 21.796875 66.546875 
Q 19.921875 64.59375 19.921875 59.515625 
L 19.921875 54.6875 
L 34.71875 54.6875 
L 34.71875 47.703125 
L 19.921875 47.703125 
L 19.921875 0 
L 10.890625 0 
L 10.890625 47.703125 
L 2.296875 47.703125 
L 2.296875 54.6875 
L 10.890625 54.6875 
L 10.890625 58.5 
Q 10.890625 67.625 15.140625 71.796875 
Q 19.390625 75.984375 28.609375 75.984375 
z
" id="DejaVuSans-102"/>
      <path d="M 9.8125 72.90625 
L 19.671875 72.90625 
L 19.671875 0 
L 9.8125 0 
z
" id="DejaVuSans-73"/>
      <path d="M 48.78125 52.59375 
L 48.78125 44.1875 
Q 44.96875 46.296875 41.140625 47.34375 
Q 37.3125 48.390625 33.40625 48.390625 
Q 24.65625 48.390625 19.8125 42.84375 
Q 14.984375 37.3125 14.984375 27.296875 
Q 14.984375 17.28125 19.8125 11.734375 
Q 24.65625 6.203125 33.40625 6.203125 
Q 37.3125 6.203125 41.140625 7.25 
Q 44.96875 8.296875 48.78125 10.40625 
L 48.78125 2.09375 
Q 45.015625 0.34375 40.984375 -0.53125 
Q 36.96875 -1.421875 32.421875 -1.421875 
Q 20.0625 -1.421875 12.78125 6.34375 
Q 5.515625 14.109375 5.515625 27.296875 
Q 5.515625 40.671875 12.859375 48.328125 
Q 20.21875 56 33.015625 56 
Q 37.15625 56 41.109375 55.140625 
Q 45.0625 54.296875 48.78125 52.59375 
z
" id="DejaVuSans-99"/>
      <path d="M 45.40625 46.390625 
L 45.40625 75.984375 
L 54.390625 75.984375 
L 54.390625 0 
L 45.40625 0 
L 45.40625 8.203125 
Q 42.578125 3.328125 38.25 0.953125 
Q 33.9375 -1.421875 27.875 -1.421875 
Q 17.96875 -1.421875 11.734375 6.484375 
Q 5.515625 14.40625 5.515625 27.296875 
Q 5.515625 40.1875 11.734375 48.09375 
Q 17.96875 56 27.875 56 
Q 33.9375 56 38.25 53.625 
Q 42.578125 51.265625 45.40625 46.390625 
z
M 14.796875 27.296875 
Q 14.796875 17.390625 18.875 11.75 
Q 22.953125 6.109375 30.078125 6.109375 
Q 37.203125 6.109375 41.296875 11.75 
Q 45.40625 17.390625 45.40625 27.296875 
Q 45.40625 37.203125 41.296875 42.84375 
Q 37.203125 48.484375 30.078125 48.484375 
Q 22.953125 48.484375 18.875 42.84375 
Q 14.796875 37.203125 14.796875 27.296875 
z
" id="DejaVuSans-100"/>
      <path d="M 11.71875 12.40625 
L 22.015625 12.40625 
L 22.015625 0 
L 11.71875 0 
z
M 11.71875 51.703125 
L 22.015625 51.703125 
L 22.015625 39.3125 
L 11.71875 39.3125 
z
" id="DejaVuSans-58"/>
      <path d="M 10.984375 1.515625 
L 10.984375 10.5 
Q 14.703125 8.734375 18.5 7.8125 
Q 22.3125 6.890625 25.984375 6.890625 
Q 35.75 6.890625 40.890625 13.453125 
Q 46.046875 20.015625 46.78125 33.40625 
Q 43.953125 29.203125 39.59375 26.953125 
Q 35.25 24.703125 29.984375 24.703125 
Q 19.046875 24.703125 12.671875 31.3125 
Q 6.296875 37.9375 6.296875 49.421875 
Q 6.296875 60.640625 12.9375 67.421875 
Q 19.578125 74.21875 30.609375 74.21875 
Q 43.265625 74.21875 49.921875 64.515625 
Q 56.59375 54.828125 56.59375 36.375 
Q 56.59375 19.140625 48.40625 8.859375 
Q 40.234375 -1.421875 26.421875 -1.421875 
Q 22.703125 -1.421875 18.890625 -0.6875 
Q 15.09375 0.046875 10.984375 1.515625 
z
M 30.609375 32.421875 
Q 37.25 32.421875 41.125 36.953125 
Q 45.015625 41.5 45.015625 49.421875 
Q 45.015625 57.28125 41.125 61.84375 
Q 37.25 66.40625 30.609375 66.40625 
Q 23.96875 66.40625 20.09375 61.84375 
Q 16.21875 57.28125 16.21875 49.421875 
Q 16.21875 41.5 20.09375 36.953125 
Q 23.96875 32.421875 30.609375 32.421875 
z
" id="DejaVuSans-57"/>
      <path d="M 10.6875 12.40625 
L 21 12.40625 
L 21 0 
L 10.6875 0 
z
" id="DejaVuSans-46"/>
      <path d="M 25 67.921875 
Q 21.09375 67.921875 18.40625 65.203125 
Q 15.71875 62.5 15.71875 58.59375 
Q 15.71875 54.734375 18.40625 52.078125 
Q 21.09375 49.421875 25 49.421875 
Q 28.90625 49.421875 31.59375 52.078125 
Q 34.28125 54.734375 34.28125 58.59375 
Q 34.28125 62.453125 31.5625 65.1875 
Q 28.859375 67.921875 25 67.921875 
z
M 25 74.21875 
Q 28.125 74.21875 31 73.015625 
Q 33.890625 71.828125 35.984375 69.578125 
Q 38.234375 67.390625 39.359375 64.59375 
Q 40.484375 61.8125 40.484375 58.59375 
Q 40.484375 52.15625 35.96875 47.6875 
Q 31.453125 43.21875 24.90625 43.21875 
Q 18.3125 43.21875 13.90625 47.609375 
Q 9.515625 52 9.515625 58.59375 
Q 9.515625 65.140625 14 69.671875 
Q 18.5 74.21875 25 74.21875 
z
" id="DejaVuSans-176"/>
     </defs>
     <use xlink:href="#DejaVuSans-65"/>
     <use x="68.408203" xlink:href="#DejaVuSans-110"/>
     <use x="131.787109" xlink:href="#DejaVuSans-103"/>
     <use x="195.263672" xlink:href="#DejaVuSans-108"/>
     <use x="223.046875" xlink:href="#DejaVuSans-101"/>
     <use x="284.570312" xlink:href="#DejaVuSans-32"/>
     <use x="316.357422" xlink:href="#DejaVuSans-111"/>
     <use x="377.539062" xlink:href="#DejaVuSans-102"/>
     <use x="412.744141" xlink:href="#DejaVuSans-32"/>
     <use x="444.53125" xlink:href="#DejaVuSans-73"/>
     <use x="474.023438" xlink:href="#DejaVuSans-110"/>
     <use x="537.402344" xlink:href="#DejaVuSans-99"/>
     <use x="592.382812" xlink:href="#DejaVuSans-105"/>
     <use x="620.166016" xlink:href="#DejaVuSans-100"/>
     <use x="683.642578" xlink:href="#DejaVuSans-101"/>
     <use x="745.166016" xlink:href="#DejaVuSans-110"/>
     <use x="808.544922" xlink:href="#DejaVuSans-99"/>
     <use x="863.525391" xlink:href="#DejaVuSans-101"/>
     <use x="925.048828" xlink:href="#DejaVuSans-58"/>
     <use x="958.740234" xlink:href="#DejaVuSans-32"/>
     <use x="990.527344" xlink:href="#DejaVuSans-50"/>
     <use x="1054.150391" xlink:href="#DejaVuSans-57"/>
     <use x="1117.773438" xlink:href="#DejaVuSans-46"/>
     <use x="1149.560547" xlink:href="#DejaVuSans-48"/>
     <use x="1213.183594" xlink:href="#DejaVuSans-176"/>
    </g>
   </g>
   <g id="legend_1">
    <g id="line2d_25">
     <path d="M 259.570486 38.549688 
L 279.570486 38.549688 
" style="fill:none;stroke:#1f77b4;stroke-linecap:square;"/>
    </g>
    <g id="line2d_26"/>
    <g id="text_15">
     <!-- s-pol. -->
     <g transform="translate(287.570486 42.049688)scale(0.1 -0.1)">
      <defs>
       <path d="M 4.890625 31.390625 
L 31.203125 31.390625 
L 31.203125 23.390625 
L 4.890625 23.390625 
z
" id="DejaVuSans-45"/>
       <path d="M 18.109375 8.203125 
L 18.109375 -20.796875 
L 9.078125 -20.796875 
L 9.078125 54.6875 
L 18.109375 54.6875 
L 18.109375 46.390625 
Q 20.953125 51.265625 25.265625 53.625 
Q 29.59375 56 35.59375 56 
Q 45.5625 56 51.78125 48.09375 
Q 58.015625 40.1875 58.015625 27.296875 
Q 58.015625 14.40625 51.78125 6.484375 
Q 45.5625 -1.421875 35.59375 -1.421875 
Q 29.59375 -1.421875 25.265625 0.953125 
Q 20.953125 3.328125 18.109375 8.203125 
z
M 48.6875 27.296875 
Q 48.6875 37.203125 44.609375 42.84375 
Q 40.53125 48.484375 33.40625 48.484375 
Q 26.265625 48.484375 22.1875 42.84375 
Q 18.109375 37.203125 18.109375 27.296875 
Q 18.109375 17.390625 22.1875 11.75 
Q 26.265625 6.109375 33.40625 6.109375 
Q 40.53125 6.109375 44.609375 11.75 
Q 48.6875 17.390625 48.6875 27.296875 
z
" id="DejaVuSans-112"/>
      </defs>
      <use xlink:href="#DejaVuSans-115"/>
      <use x="52.099609" xlink:href="#DejaVuSans-45"/>
      <use x="88.183594" xlink:href="#DejaVuSans-112"/>
      <use x="151.660156" xlink:href="#DejaVuSans-111"/>
      <use x="212.841797" xlink:href="#DejaVuSans-108"/>
      <use x="240.625" xlink:href="#DejaVuSans-46"/>
     </g>
    </g>
    <g id="line2d_27">
     <path d="M 259.570486 53.227813 
L 279.570486 53.227813 
" style="fill:none;stroke:#ff7f0e;stroke-linecap:square;"/>
    </g>
    <g id="line2d_28"/>
    <g id="text_16">
     <!-- p-pol. -->
     <g transform="translate(287.570486 56.727813)scale(0.1 -0.1)">
      <use xlink:href="#DejaVuSans-112"/>
      <use x="63.476562" xlink:href="#DejaVuSans-45"/>
      <use x="99.560547" xlink:href="#DejaVuSans-112"/>
      <use x="163.037109" xlink:href="#DejaVuSans-111"/>
      <use x="224.21875" xlink:href="#DejaVuSans-108"/>
      <use x="252.001953" xlink:href="#DejaVuSans-46"/>
     </g>
    </g>
   </g>
  </g>
  <g id="axes_2">
   <g id="patch_7">
    <path d="M 368.265173 188.44 
L 637.2 188.44 
L 637.2 25.45125 
L 368.265173 25.45125 
z
" style="fill:#ffffff;"/>
   </g>
   <g id="matplotlib.axis_3">
    <g id="xtick_8">
     <g id="line2d_29">
      <path clip-path="url(#pcba1aadafe)" d="M 380.489483 188.44 
L 380.489483 25.45125 
" style="fill:none;stroke:#b0b0b0;stroke-dasharray:2.96,1.28;stroke-dashoffset:0;stroke-opacity:0.3;stroke-width:0.8;"/>
     </g>
     <g id="line2d_30">
      <g>
       <use style="stroke:#000000;stroke-width:0.8;" x="380.489483" xlink:href="#m0d9bdc0b76" y="188.44"/>
      </g>
     </g>
     <g id="text_17">
      <!-- 0 -->
      <g transform="translate(377.308233 203.038437)scale(0.1 -0.1)">
       <use xlink:href="#DejaVuSans-48"/>
      </g>
     </g>
    </g>
    <g id="xtick_9">
     <g id="line2d_31">
      <path clip-path="url(#pcba1aadafe)" d="M 415.416084 188.44 
L 415.416084 25.45125 
" style="fill:none;stroke:#b0b0b0;stroke-dasharray:2.96,1.28;stroke-dashoffset:0;stroke-opacity:0.3;stroke-width:0.8;"/>
     </g>
     <g id="line2d_32">
      <g>
       <use style="stroke:#000000;stroke-width:0.8;" x="415.416084" xlink:href="#m0d9bdc0b76" y="188.44"/>
      </g>
     </g>
     <g id="text_18">
      <!-- 10 -->
      <g transform="translate(409.053584 203.038437)scale(0.1 -0.1)">
       <use xlink:href="#DejaVuSans-49"/>
       <use x="63.623047" xlink:href="#DejaVuSans-48"/>
      </g>
     </g>
    </g>
    <g id="xtick_10">
     <g id="line2d_33">
      <path clip-path="url(#pcba1aadafe)" d="M 450.342685 188.44 
L 450.342685 25.45125 
" style="fill:none;stroke:#b0b0b0;stroke-dasharray:2.96,1.28;stroke-dashoffset:0;stroke-opacity:0.3;stroke-width:0.8;"/>
     </g>
     <g id="line2d_34">
      <g>
       <use style="stroke:#000000;stroke-width:0.8;" x="450.342685" xlink:href="#m0d9bdc0b76" y="188.44"/>
      </g>
     </g>
     <g id="text_19">
      <!-- 20 -->
      <g transform="translate(443.980185 203.038437)scale(0.1 -0.1)">
       <use xlink:href="#DejaVuSans-50"/>
       <use x="63.623047" xlink:href="#DejaVuSans-48"/>
      </g>
     </g>
    </g>
    <g id="xtick_11">
     <g id="line2d_35">
      <path clip-path="url(#pcba1aadafe)" d="M 485.269286 188.44 
L 485.269286 25.45125 
" style="fill:none;stroke:#b0b0b0;stroke-dasharray:2.96,1.28;stroke-dashoffset:0;stroke-opacity:0.3;stroke-width:0.8;"/>
     </g>
     <g id="line2d_36">
      <g>
       <use style="stroke:#000000;stroke-width:0.8;" x="485.269286" xlink:href="#m0d9bdc0b76" y="188.44"/>
      </g>
     </g>
     <g id="text_20">
      <!-- 30 -->
      <g transform="translate(478.906786 203.038437)scale(0.1 -0.1)">
       <defs>
        <path d="M 40.578125 39.3125 
Q 47.65625 37.796875 51.625 33 
Q 55.609375 28.21875 55.609375 21.1875 
Q 55.609375 10.40625 48.1875 4.484375 
Q 40.765625 -1.421875 27.09375 -1.421875 
Q 22.515625 -1.421875 17.65625 -0.515625 
Q 12.796875 0.390625 7.625 2.203125 
L 7.625 11.71875 
Q 11.71875 9.328125 16.59375 8.109375 
Q 21.484375 6.890625 26.8125 6.890625 
Q 36.078125 6.890625 40.9375 10.546875 
Q 45.796875 14.203125 45.796875 21.1875 
Q 45.796875 27.640625 41.28125 31.265625 
Q 36.765625 34.90625 28.71875 34.90625 
L 20.21875 34.90625 
L 20.21875 43.015625 
L 29.109375 43.015625 
Q 36.375 43.015625 40.234375 45.921875 
Q 44.09375 48.828125 44.09375 54.296875 
Q 44.09375 59.90625 40.109375 62.90625 
Q 36.140625 65.921875 28.71875 65.921875 
Q 24.65625 65.921875 20.015625 65.03125 
Q 15.375 64.15625 9.8125 62.3125 
L 9.8125 71.09375 
Q 15.4375 72.65625 20.34375 73.4375 
Q 25.25 74.21875 29.59375 74.21875 
Q 40.828125 74.21875 47.359375 69.109375 
Q 53.90625 64.015625 53.90625 55.328125 
Q 53.90625 49.265625 50.4375 45.09375 
Q 46.96875 40.921875 40.578125 39.3125 
z
" id="DejaVuSans-51"/>
       </defs>
       <use xlink:href="#DejaVuSans-51"/>
       <use x="63.623047" xlink:href="#DejaVuSans-48"/>
      </g>
     </g>
    </g>
    <g id="xtick_12">
     <g id="line2d_37">
      <path clip-path="url(#pcba1aadafe)" d="M 520.195887 188.44 
L 520.195887 25.45125 
" style="fill:none;stroke:#b0b0b0;stroke-dasharray:2.96,1.28;stroke-dashoffset:0;stroke-opacity:0.3;stroke-width:0.8;"/>
     </g>
     <g id="line2d_38">
      <g>
       <use style="stroke:#000000;stroke-width:0.8;" x="520.195887" xlink:href="#m0d9bdc0b76" y="188.44"/>
      </g>
     </g>
     <g id="text_21">
      <!-- 40 -->
      <g transform="translate(513.833387 203.038437)scale(0.1 -0.1)">
       <use xlink:href="#DejaVuSans-52"/>
       <use x="63.623047" xlink:href="#DejaVuSans-48"/>
      </g>
     </g>
    </g>
    <g id="xtick_13">
     <g id="line2d_39">
      <path clip-path="url(#pcba1aadafe)" d="M 555.122488 188.44 
L 555.122488 25.45125 
" style="fill:none;stroke:#b0b0b0;stroke-dasharray:2.96,1.28;stroke-dashoffset:0;stroke-opacity:0.3;stroke-width:0.8;"/>
     </g>
     <g id="line2d_40">
      <g>
       <use style="stroke:#000000;stroke-width:0.8;" x="555.122488" xlink:href="#m0d9bdc0b76" y="188.44"/>
      </g>
     </g>
     <g id="text_22">
      <!-- 50 -->
      <g transform="translate(548.759988 203.038437)scale(0.1 -0.1)">
       <use xlink:href="#DejaVuSans-53"/>
       <use x="63.623047" xlink:href="#DejaVuSans-48"/>
      </g>
     </g>
    </g>
    <g id="xtick_14">
     <g id="line2d_41">
      <path clip-path="url(#pcba1aadafe)" d="M 590.049089 188.44 
L 590.049089 25.45125 
" style="fill:none;stroke:#b0b0b0;stroke-dasharray:2.96,1.28;stroke-dashoffset:0;stroke-opacity:0.3;stroke-width:0.8;"/>
     </g>
     <g id="line2d_42">
      <g>
       <use style="stroke:#000000;stroke-width:0.8;" x="590.049089" xlink:href="#m0d9bdc0b76" y="188.44"/>
      </g>
     </g>
     <g id="text_23">
      <!-- 60 -->
      <g transform="translate(583.686589 203.038437)scale(0.1 -0.1)">
       <use xlink:href="#DejaVuSans-54"/>
       <use x="63.623047" xlink:href="#DejaVuSans-48"/>
      </g>
     </g>
    </g>
    <g id="xtick_15">
     <g id="line2d_43">
      <path clip-path="url(#pcba1aadafe)" d="M 624.97569 188.44 
L 624.97569 25.45125 
" style="fill:none;stroke:#b0b0b0;stroke-dasharray:2.96,1.28;stroke-dashoffset:0;stroke-opacity:0.3;stroke-width:0.8;"/>
     </g>
     <g id="line2d_44">
      <g>
       <use style="stroke:#000000;stroke-width:0.8;" x="624.97569" xlink:href="#m0d9bdc0b76" y="188.44"/>
      </g>
     </g>
     <g id="text_24">
      <!-- 70 -->
      <g transform="translate(618.61319 203.038437)scale(0.1 -0.1)">
       <use xlink:href="#DejaVuSans-55"/>
       <use x="63.623047" xlink:href="#DejaVuSans-48"/>
      </g>
     </g>
    </g>
    <g id="text_25">
     <!-- Θ (°) -->
     <g transform="translate(490.806024 216.716562)scale(0.1 -0.1)">
      <defs>
       <path d="M 22.125 42.96875 
L 56.59375 42.96875 
L 56.59375 34.671875 
L 22.125 34.671875 
z
M 39.40625 66.21875 
Q 28.65625 66.21875 22.359375 58.203125 
Q 16.015625 50.203125 16.015625 36.375 
Q 16.015625 22.609375 22.328125 14.59375 
Q 28.65625 6.59375 39.40625 6.59375 
Q 50.140625 6.59375 56.453125 14.59375 
Q 62.703125 22.609375 62.703125 36.375 
Q 62.703125 50.203125 56.453125 58.203125 
Q 50.140625 66.21875 39.40625 66.21875 
z
M 39.40625 74.21875 
Q 54.734375 74.21875 63.90625 63.9375 
Q 73.09375 53.65625 73.09375 36.375 
Q 73.09375 19.140625 63.921875 8.890625 
Q 54.734375 -1.421875 39.40625 -1.421875 
Q 24.03125 -1.421875 14.84375 8.84375 
Q 5.609375 19.09375 5.609375 36.375 
Q 5.609375 53.65625 14.84375 63.96875 
Q 24.03125 74.21875 39.40625 74.21875 
z
" id="DejaVuSans-920"/>
      </defs>
      <use xlink:href="#DejaVuSans-920"/>
      <use x="78.710938" xlink:href="#DejaVuSans-32"/>
      <use x="110.498047" xlink:href="#DejaVuSans-40"/>
      <use x="149.511719" xlink:href="#DejaVuSans-176"/>
      <use x="199.511719" xlink:href="#DejaVuSans-41"/>
     </g>
    </g>
   </g>
   <g id="matplotlib.axis_4">
    <g id="ytick_5">
     <g id="line2d_45">
      <path clip-path="url(#pcba1aadafe)" d="M 368.265173 188.44 
L 637.2 188.44 
" style="fill:none;stroke:#b0b0b0;stroke-dasharray:2.96,1.28;stroke-dashoffset:0;stroke-opacity:0.3;stroke-width:0.8;"/>
     </g>
     <g id="line2d_46">
      <g>
       <use style="stroke:#000000;stroke-width:0.8;" x="368.265173" xlink:href="#m6fa3838214" y="188.44"/>
      </g>
     </g>
     <g id="text_26">
      <!-- 0.0 -->
      <g transform="translate(345.362048 192.239219)scale(0.1 -0.1)">
       <use xlink:href="#DejaVuSans-48"/>
       <use x="63.623047" xlink:href="#DejaVuSans-46"/>
       <use x="95.410156" xlink:href="#DejaVuSans-48"/>
      </g>
     </g>
    </g>
    <g id="ytick_6">
     <g id="line2d_47">
      <path clip-path="url(#pcba1aadafe)" d="M 368.265173 155.84225 
L 637.2 155.84225 
" style="fill:none;stroke:#b0b0b0;stroke-dasharray:2.96,1.28;stroke-dashoffset:0;stroke-opacity:0.3;stroke-width:0.8;"/>
     </g>
     <g id="line2d_48">
      <g>
       <use style="stroke:#000000;stroke-width:0.8;" x="368.265173" xlink:href="#m6fa3838214" y="155.84225"/>
      </g>
     </g>
     <g id="text_27">
      <!-- 0.2 -->
      <g transform="translate(345.362048 159.641469)scale(0.1 -0.1)">
       <use xlink:href="#DejaVuSans-48"/>
       <use x="63.623047" xlink:href="#DejaVuSans-46"/>
       <use x="95.410156" xlink:href="#DejaVuSans-50"/>
      </g>
     </g>
    </g>
    <g id="ytick_7">
     <g id="line2d_49">
      <path clip-path="url(#pcba1aadafe)" d="M 368.265173 123.2445 
L 637.2 123.2445 
" style="fill:none;stroke:#b0b0b0;stroke-dasharray:2.96,1.28;stroke-dashoffset:0;stroke-opacity:0.3;stroke-width:0.8;"/>
     </g>
     <g id="line2d_50">
      <g>
       <use style="stroke:#000000;stroke-width:0.8;" x="368.265173" xlink:href="#m6fa3838214" y="123.2445"/>
      </g>
     </g>
     <g id="text_28">
      <!-- 0.4 -->
      <g transform="translate(345.362048 127.043719)scale(0.1 -0.1)">
       <use xlink:href="#DejaVuSans-48"/>
       <use x="63.623047" xlink:href="#DejaVuSans-46"/>
       <use x="95.410156" xlink:href="#DejaVuSans-52"/>
      </g>
     </g>
    </g>
    <g id="ytick_8">
     <g id="line2d_51">
      <path clip-path="url(#pcba1aadafe)" d="M 368.265173 90.64675 
L 637.2 90.64675 
" style="fill:none;stroke:#b0b0b0;stroke-dasharray:2.96,1.28;stroke-dashoffset:0;stroke-opacity:0.3;stroke-width:0.8;"/>
     </g>
     <g id="line2d_52">
      <g>
       <use style="stroke:#000000;stroke-width:0.8;" x="368.265173" xlink:href="#m6fa3838214" y="90.64675"/>
      </g>
     </g>
     <g id="text_29">
      <!-- 0.6 -->
      <g transform="translate(345.362048 94.445969)scale(0.1 -0.1)">
       <use xlink:href="#DejaVuSans-48"/>
       <use x="63.623047" xlink:href="#DejaVuSans-46"/>
       <use x="95.410156" xlink:href="#DejaVuSans-54"/>
      </g>
     </g>
    </g>
    <g id="ytick_9">
     <g id="line2d_53">
      <path clip-path="url(#pcba1aadafe)" d="M 368.265173 58.049 
L 637.2 58.049 
" style="fill:none;stroke:#b0b0b0;stroke-dasharray:2.96,1.28;stroke-dashoffset:0;stroke-opacity:0.3;stroke-width:0.8;"/>
     </g>
     <g id="line2d_54">
      <g>
       <use style="stroke:#000000;stroke-width:0.8;" x="368.265173" xlink:href="#m6fa3838214" y="58.049"/>
      </g>
     </g>
     <g id="text_30">
      <!-- 0.8 -->
      <g transform="translate(345.362048 61.848219)scale(0.1 -0.1)">
       <defs>
        <path d="M 31.78125 34.625 
Q 24.75 34.625 20.71875 30.859375 
Q 16.703125 27.09375 16.703125 20.515625 
Q 16.703125 13.921875 20.71875 10.15625 
Q 24.75 6.390625 31.78125 6.390625 
Q 38.8125 6.390625 42.859375 10.171875 
Q 46.921875 13.96875 46.921875 20.515625 
Q 46.921875 27.09375 42.890625 30.859375 
Q 38.875 34.625 31.78125 34.625 
z
M 21.921875 38.8125 
Q 15.578125 40.375 12.03125 44.71875 
Q 8.5 49.078125 8.5 55.328125 
Q 8.5 64.0625 14.71875 69.140625 
Q 20.953125 74.21875 31.78125 74.21875 
Q 42.671875 74.21875 48.875 69.140625 
Q 55.078125 64.0625 55.078125 55.328125 
Q 55.078125 49.078125 51.53125 44.71875 
Q 48 40.375 41.703125 38.8125 
Q 48.828125 37.15625 52.796875 32.3125 
Q 56.78125 27.484375 56.78125 20.515625 
Q 56.78125 9.90625 50.3125 4.234375 
Q 43.84375 -1.421875 31.78125 -1.421875 
Q 19.734375 -1.421875 13.25 4.234375 
Q 6.78125 9.90625 6.78125 20.515625 
Q 6.78125 27.484375 10.78125 32.3125 
Q 14.796875 37.15625 21.921875 38.8125 
z
M 18.3125 54.390625 
Q 18.3125 48.734375 21.84375 45.5625 
Q 25.390625 42.390625 31.78125 42.390625 
Q 38.140625 42.390625 41.71875 45.5625 
Q 45.3125 48.734375 45.3125 54.390625 
Q 45.3125 60.0625 41.71875 63.234375 
Q 38.140625 66.40625 31.78125 66.40625 
Q 25.390625 66.40625 21.84375 63.234375 
Q 18.3125 60.0625 18.3125 54.390625 
z
" id="DejaVuSans-56"/>
       </defs>
       <use xlink:href="#DejaVuSans-48"/>
       <use x="63.623047" xlink:href="#DejaVuSans-46"/>
       <use x="95.410156" xlink:href="#DejaVuSans-56"/>
      </g>
     </g>
    </g>
    <g id="ytick_10">
     <g id="line2d_55">
      <path clip-path="url(#pcba1aadafe)" d="M 368.265173 25.45125 
L 637.2 25.45125 
" style="fill:none;stroke:#b0b0b0;stroke-dasharray:2.96,1.28;stroke-dashoffset:0;stroke-opacity:0.3;stroke-width:0.8;"/>
     </g>
     <g id="line2d_56">
      <g>
       <use style="stroke:#000000;stroke-width:0.8;" x="368.265173" xlink:href="#m6fa3838214" y="25.45125"/>
      </g>
     </g>
     <g id="text_31">
      <!-- 1.0 -->
      <g transform="translate(345.362048 29.250469)scale(0.1 -0.1)">
       <use xlink:href="#DejaVuSans-49"/>
       <use x="63.623047" xlink:href="#DejaVuSans-46"/>
       <use x="95.410156" xlink:href="#DejaVuSans-48"/>
      </g>
     </g>
    </g>
   </g>
   <g id="LineCollection_1">
    <path clip-path="url(#pcba1aadafe)" d="M 481.776626 188.44 
L 481.776626 25.45125 
" style="fill:none;stroke:#1f77b4;stroke-dasharray:3.7,1.6;stroke-dashoffset:0;"/>
   </g>
   <g id="line2d_57">
    <path clip-path="url(#pcba1aadafe)" d="M 380.489483 188.437113 
L 624.97569 188.44 
L 624.97569 188.44 
" style="fill:none;stroke:#1f77b4;stroke-linecap:square;"/>
   </g>
   <g id="line2d_58">
    <path clip-path="url(#pcba1aadafe)" d="M 380.489483 188.437113 
L 499.239926 188.339565 
L 504.129651 188.110572 
L 506.225247 187.823571 
L 507.622311 187.407243 
L 508.320843 187.047295 
L 509.019375 186.497548 
L 509.717907 185.621191 
L 510.416439 184.152249 
L 511.114971 181.539463 
L 511.813503 176.559115 
L 512.512035 166.337195 
L 513.210567 144.325997 
L 514.607631 58.285218 
L 515.306163 61.322595 
L 516.004695 85.623283 
L 516.703227 103.283138 
L 517.401759 112.130513 
L 518.100291 114.542419 
L 518.798823 112.120139 
L 519.497355 105.668328 
L 520.195887 95.743501 
L 522.990015 47.54074 
L 523.688547 41.46983 
L 524.387079 38.094022 
L 527.181207 29.510656 
L 527.879739 27.345597 
L 528.578271 26.013253 
L 529.276803 25.817292 
L 529.975335 26.606853 
L 530.673867 27.831192 
L 531.372399 28.793003 
L 532.070931 28.950834 
L 532.769463 28.16985 
L 533.467995 26.908087 
L 534.166527 26.312152 
L 534.865059 28.066636 
L 535.563591 33.778267 
L 536.262123 44.017683 
L 537.659187 72.963665 
L 539.056251 100.224942 
L 539.754783 110.546494 
L 540.453316 118.573321 
L 541.151848 124.623489 
L 541.85038 129.098755 
L 542.548912 132.415386 
L 543.945976 137.216729 
L 545.34304 142.033025 
L 546.740104 148.356676 
L 548.8357 158.346588 
L 549.534232 161.000427 
L 550.232764 163.159148 
L 550.931296 164.819951 
L 551.629828 166.007686 
L 552.32836 166.756469 
L 553.026892 167.099182 
L 553.725424 167.063059 
L 554.423956 166.669397 
L 555.122488 165.935935 
L 555.82102 164.880986 
L 556.519552 163.528356 
L 557.916616 160.076065 
L 560.012212 153.771044 
L 562.107808 146.637545 
L 563.504872 140.647887 
L 564.203404 136.907157 
L 564.901936 132.472959 
L 565.600468 127.204018 
L 566.299 120.981616 
L 567.696064 105.456845 
L 569.093128 86.400636 
L 571.188724 56.941095 
L 571.887256 48.715072 
L 572.585788 41.847582 
L 573.28432 36.430497 
L 573.982852 32.396524 
L 574.681384 29.568216 
L 575.379916 27.712893 
L 576.078448 26.587385 
L 576.77698 25.967772 
L 577.475512 25.666342 
L 578.872576 25.492181 
L 580.968173 25.492973 
L 582.365237 25.757714 
L 583.762301 26.441949 
L 585.159365 27.486531 
L 587.254961 29.419929 
L 588.652025 31.164827 
L 589.350557 32.321042 
L 590.747621 35.295386 
L 592.843217 40.21328 
L 593.541749 41.355013 
L 594.240281 41.962104 
L 594.938813 41.909905 
L 595.637345 41.1352 
L 596.335877 39.652034 
L 597.034409 37.562898 
L 599.130005 29.981325 
L 599.828537 28.049282 
L 600.527069 26.879287 
L 601.225601 26.588154 
L 601.924133 27.135621 
L 602.622665 28.347456 
L 604.019729 31.785543 
L 606.813857 39.218748 
L 607.512389 41.729201 
L 608.210921 44.96147 
L 608.909453 49.06237 
L 610.306517 59.61376 
L 612.402113 76.612688 
L 613.100645 81.086066 
L 613.799177 84.495168 
L 614.497709 86.676447 
L 615.196241 87.52177 
L 615.894773 86.958649 
L 616.593305 84.939304 
L 617.291837 81.443369 
L 617.99037 76.497292 
L 618.688902 70.211501 
L 620.085966 54.781207 
L 621.48303 39.271064 
L 622.181562 33.257548 
L 622.880094 29.099508 
L 623.578626 26.86244 
L 624.277158 26.218623 
L 624.97569 26.591999 
L 624.97569 26.591999 
" style="fill:none;stroke:#ff7f0e;stroke-linecap:square;"/>
   </g>
   <g id="patch_8">
    <path d="M 368.265173 188.44 
L 368.265173 25.45125 
" style="fill:none;stroke:#000000;stroke-linecap:square;stroke-linejoin:miter;stroke-width:0.8;"/>
   </g>
   <g id="patch_9">
    <path d="M 637.2 188.44 
L 637.2 25.45125 
" style="fill:none;stroke:#000000;stroke-linecap:square;stroke-linejoin:miter;stroke-width:0.8;"/>
   </g>
   <g id="patch_10">
    <path d="M 368.265173 188.44 
L 637.2 188.44 
" style="fill:none;stroke:#000000;stroke-linecap:square;stroke-linejoin:miter;stroke-width:0.8;"/>
   </g>
   <g id="patch_11">
    <path d="M 368.265173 25.45125 
L 637.2 25.45125 
" style="fill:none;stroke:#000000;stroke-linecap:square;stroke-linejoin:miter;stroke-width:0.8;"/>
   </g>
   <g id="text_32">
    <!-- 29.0° -->
    <g style="opacity:0.8;" transform="translate(485.003844 172.141125)scale(0.09 -0.09)">
     <use xlink:href="#DejaVuSans-50"/>
     <use x="63.623047" xlink:href="#DejaVuSans-57"/>
     <use x="127.246094" xlink:href="#DejaVuSans-46"/>
     <use x="159.033203" xlink:href="#DejaVuSans-48"/>
     <use x="222.65625" xlink:href="#DejaVuSans-176"/>
    </g>
   </g>
   <g id="text_33">
    <!-- λ = 532.0nm -->
    <g transform="translate(463.516024 19.45125)scale(0.12 -0.12)">
     <defs>
      <path d="M 10.59375 45.40625 
L 73.1875 45.40625 
L 73.1875 37.203125 
L 10.59375 37.203125 
z
M 10.59375 25.484375 
L 73.1875 25.484375 
L 73.1875 17.1875 
L 10.59375 17.1875 
z
" id="DejaVuSans-61"/>
     </defs>
     <use xlink:href="#DejaVuSans-955"/>
     <use x="59.179688" xlink:href="#DejaVuSans-32"/>
     <use x="90.966797" xlink:href="#DejaVuSans-61"/>
     <use x="174.755859" xlink:href="#DejaVuSans-32"/>
     <use x="206.542969" xlink:href="#DejaVuSans-53"/>
     <use x="270.166016" xlink:href="#DejaVuSans-51"/>
     <use x="333.789062" xlink:href="#DejaVuSans-50"/>
     <use x="397.412109" xlink:href="#DejaVuSans-46"/>
     <use x="429.199219" xlink:href="#DejaVuSans-48"/>
     <use x="492.822266" xlink:href="#DejaVuSans-110"/>
     <use x="556.201172" xlink:href="#DejaVuSans-109"/>
    </g>
   </g>
   <g id="legend_2">
    <g id="line2d_59">
     <path d="M 377.265173 38.549688 
L 397.265173 38.549688 
" style="fill:none;stroke:#1f77b4;stroke-linecap:square;"/>
    </g>
    <g id="line2d_60"/>
    <g id="text_34">
     <!-- s-pol. -->
     <g transform="translate(405.265173 42.049688)scale(0.1 -0.1)">
      <use xlink:href="#DejaVuSans-115"/>
      <use x="52.099609" xlink:href="#DejaVuSans-45"/>
      <use x="88.183594" xlink:href="#DejaVuSans-112"/>
      <use x="151.660156" xlink:href="#DejaVuSans-111"/>
      <use x="212.841797" xlink:href="#DejaVuSans-108"/>
      <use x="240.625" xlink:href="#DejaVuSans-46"/>
     </g>
    </g>
    <g id="line2d_61">
     <path d="M 377.265173 53.227813 
L 397.265173 53.227813 
" style="fill:none;stroke:#ff7f0e;stroke-linecap:square;"/>
    </g>
    <g id="line2d_62"/>
    <g id="text_35">
     <!-- p-pol. -->
     <g transform="translate(405.265173 56.727813)scale(0.1 -0.1)">
      <use xlink:href="#DejaVuSans-112"/>
      <use x="63.476562" xlink:href="#DejaVuSans-45"/>
      <use x="99.560547" xlink:href="#DejaVuSans-112"/>
      <use x="163.037109" xlink:href="#DejaVuSans-111"/>
      <use x="224.21875" xlink:href="#DejaVuSans-108"/>
      <use x="252.001953" xlink:href="#DejaVuSans-46"/>
     </g>
    </g>
   </g>
  </g>
 </g>
 <defs>
  <clipPath id="p28314e93ae">
   <rect height="162.98875" width="268.934827" x="56.015346" y="25.45125"/>
  </clipPath>
  <clipPath id="pcba1aadafe">
   <rect height="162.98875" width="268.934827" x="368.265173" y="25.45125"/>
  </clipPath>
 </defs>
</svg>
